<mxfile host="app.diagrams.net" modified="2021-03-09T02:03:41.889Z" agent="5.0 (Macintosh; Intel Mac OS X 11_2_2) AppleWebKit/537.36 (KHTML, like Gecko) Chrome/88.0.4324.192 Safari/537.36" etag="YSwWxF-mGBJUdLJrOstz" version="14.4.2" type="github">
  <diagram id="Y5SZPlDqchn7_NLFBQAu" name="Page-1">
    <mxGraphModel dx="1186" dy="687" grid="1" gridSize="10" guides="1" tooltips="1" connect="1" arrows="1" fold="1" page="1" pageScale="1" pageWidth="850" pageHeight="1100" math="0" shadow="0">
      <root>
        <mxCell id="0" />
        <mxCell id="1" parent="0" />
        <mxCell id="YJtWl9CWhGTzo6qaQz2S-10" style="edgeStyle=orthogonalEdgeStyle;rounded=0;orthogonalLoop=1;jettySize=auto;html=1;exitX=0.5;exitY=1;exitDx=0;exitDy=0;fontFamily=Helvetica;fontSize=12;" edge="1" parent="1" source="YJtWl9CWhGTzo6qaQz2S-1" target="YJtWl9CWhGTzo6qaQz2S-2">
          <mxGeometry relative="1" as="geometry" />
        </mxCell>
        <mxCell id="YJtWl9CWhGTzo6qaQz2S-11" style="edgeStyle=orthogonalEdgeStyle;rounded=0;orthogonalLoop=1;jettySize=auto;html=1;exitX=0.5;exitY=1;exitDx=0;exitDy=0;fontFamily=Helvetica;fontSize=12;" edge="1" parent="1" source="YJtWl9CWhGTzo6qaQz2S-1" target="YJtWl9CWhGTzo6qaQz2S-5">
          <mxGeometry relative="1" as="geometry" />
        </mxCell>
        <mxCell id="YJtWl9CWhGTzo6qaQz2S-1" value="LinkSys WRT 54G" style="rounded=1;whiteSpace=wrap;html=1;fontFamily=Helvetica;fontSize=12;" vertex="1" parent="1">
          <mxGeometry x="390" y="150" width="120" height="60" as="geometry" />
        </mxCell>
        <mxCell id="YJtWl9CWhGTzo6qaQz2S-12" style="edgeStyle=orthogonalEdgeStyle;rounded=0;orthogonalLoop=1;jettySize=auto;html=1;exitX=0.5;exitY=1;exitDx=0;exitDy=0;fontFamily=Helvetica;fontSize=12;" edge="1" parent="1" source="YJtWl9CWhGTzo6qaQz2S-2" target="YJtWl9CWhGTzo6qaQz2S-3">
          <mxGeometry relative="1" as="geometry" />
        </mxCell>
        <mxCell id="YJtWl9CWhGTzo6qaQz2S-16" style="edgeStyle=orthogonalEdgeStyle;rounded=0;orthogonalLoop=1;jettySize=auto;html=1;exitX=0;exitY=0.5;exitDx=0;exitDy=0;fontFamily=Helvetica;fontSize=12;" edge="1" parent="1" source="YJtWl9CWhGTzo6qaQz2S-2" target="YJtWl9CWhGTzo6qaQz2S-7">
          <mxGeometry relative="1" as="geometry" />
        </mxCell>
        <mxCell id="YJtWl9CWhGTzo6qaQz2S-2" value="OpenWRT" style="rounded=1;whiteSpace=wrap;html=1;fontFamily=Helvetica;fontSize=12;" vertex="1" parent="1">
          <mxGeometry x="390" y="270" width="120" height="60" as="geometry" />
        </mxCell>
        <mxCell id="YJtWl9CWhGTzo6qaQz2S-13" style="edgeStyle=orthogonalEdgeStyle;rounded=0;orthogonalLoop=1;jettySize=auto;html=1;exitX=0.5;exitY=1;exitDx=0;exitDy=0;fontFamily=Helvetica;fontSize=12;" edge="1" parent="1" source="YJtWl9CWhGTzo6qaQz2S-3" target="YJtWl9CWhGTzo6qaQz2S-4">
          <mxGeometry relative="1" as="geometry" />
        </mxCell>
        <mxCell id="YJtWl9CWhGTzo6qaQz2S-14" style="edgeStyle=orthogonalEdgeStyle;rounded=0;orthogonalLoop=1;jettySize=auto;html=1;exitX=0.5;exitY=1;exitDx=0;exitDy=0;entryX=0.5;entryY=0;entryDx=0;entryDy=0;fontFamily=Helvetica;fontSize=12;" edge="1" parent="1" source="YJtWl9CWhGTzo6qaQz2S-3" target="YJtWl9CWhGTzo6qaQz2S-8">
          <mxGeometry relative="1" as="geometry" />
        </mxCell>
        <mxCell id="YJtWl9CWhGTzo6qaQz2S-3" value="LEDE&lt;br style=&quot;font-size: 12px;&quot;&gt;&lt;span style=&quot;color: rgb(77, 77, 77); background-color: rgb(255, 255, 255); font-size: 12px;&quot;&gt;&lt;font style=&quot;font-size: 12px;&quot;&gt;Linux Embeded Development Environment&lt;/font&gt;&lt;/span&gt;" style="rounded=1;whiteSpace=wrap;html=1;fontFamily=Helvetica;fontSize=12;" vertex="1" parent="1">
          <mxGeometry x="310" y="370" width="120" height="60" as="geometry" />
        </mxCell>
        <mxCell id="YJtWl9CWhGTzo6qaQz2S-15" style="edgeStyle=orthogonalEdgeStyle;rounded=0;orthogonalLoop=1;jettySize=auto;html=1;exitX=1;exitY=0.5;exitDx=0;exitDy=0;entryX=0.5;entryY=0;entryDx=0;entryDy=0;fontFamily=Helvetica;fontSize=12;" edge="1" parent="1" source="YJtWl9CWhGTzo6qaQz2S-4" target="YJtWl9CWhGTzo6qaQz2S-9">
          <mxGeometry relative="1" as="geometry" />
        </mxCell>
        <mxCell id="YJtWl9CWhGTzo6qaQz2S-4" value="OpenWRT" style="rounded=1;whiteSpace=wrap;html=1;fontFamily=Helvetica;fontSize=12;" vertex="1" parent="1">
          <mxGeometry x="390" y="470" width="120" height="60" as="geometry" />
        </mxCell>
        <mxCell id="YJtWl9CWhGTzo6qaQz2S-5" value="&lt;h1 style=&quot;box-sizing: border-box; outline: 0px; margin: 8px 0px 16px; padding: 0px; font-size: 12px; color: rgb(79, 79, 79); line-height: 36px; overflow-wrap: break-word; background-color: rgb(255, 255, 255);&quot;&gt;DDWRT&lt;/h1&gt;" style="rounded=1;whiteSpace=wrap;html=1;fontFamily=Helvetica;fontSize=12;" vertex="1" parent="1">
          <mxGeometry x="590" y="270" width="120" height="60" as="geometry" />
        </mxCell>
        <mxCell id="YJtWl9CWhGTzo6qaQz2S-7" value="&lt;h1 style=&quot;text-align: left; box-sizing: border-box; outline: 0px; margin: 8px 0px 16px; padding: 0px; font-size: 12px; color: rgb(79, 79, 79); line-height: 36px; overflow-wrap: break-word; background-color: rgb(255, 255, 255);&quot;&gt;PandoraBox&lt;/h1&gt;" style="rounded=1;whiteSpace=wrap;html=1;fontFamily=Helvetica;fontSize=12;" vertex="1" parent="1">
          <mxGeometry x="160" y="320" width="120" height="60" as="geometry" />
        </mxCell>
        <mxCell id="YJtWl9CWhGTzo6qaQz2S-8" value="&lt;h1 style=&quot;box-sizing: border-box; outline: 0px; margin: 8px 0px 16px; padding: 0px; font-size: 12px; color: rgb(79, 79, 79); line-height: 36px; overflow-wrap: break-word; background-color: rgb(255, 255, 255);&quot;&gt;KoolShare&lt;/h1&gt;" style="rounded=1;whiteSpace=wrap;html=1;fontFamily=Helvetica;fontSize=12;" vertex="1" parent="1">
          <mxGeometry x="240" y="550" width="120" height="60" as="geometry" />
        </mxCell>
        <mxCell id="YJtWl9CWhGTzo6qaQz2S-9" value="&lt;h1 style=&quot;box-sizing: border-box; outline: 0px; margin: 8px 0px 16px; padding: 0px; font-size: 12px; color: rgb(79, 79, 79); line-height: 36px; overflow-wrap: break-word; background-color: rgb(255, 255, 255);&quot;&gt;LEAN LEDE&lt;/h1&gt;" style="rounded=1;whiteSpace=wrap;html=1;fontFamily=Helvetica;fontSize=12;" vertex="1" parent="1">
          <mxGeometry x="490" y="550" width="120" height="60" as="geometry" />
        </mxCell>
      </root>
    </mxGraphModel>
  </diagram>
</mxfile>
